# xmcd
#
# Track frame offsets:
# 182
# 14432
# 25075
# 41397
# 51125
# 67640
# 79375
# 96632
# 108947
# 125047
# 144552
#
# Disc length: 2091 seconds
#
#
# Revision: 0
# Processed by: cddbd v1.5.1PL2 Copyright (c) Steve Scherf et al.
# Submitted via: FreeRIP 2.944 
#
DISCID=9008290b
DTITLE=Donny Broussard et les etoiles de la louisiane - En bas la lune de la louisiane - Under the Louisiana Moon
DYEAR=1993
DGENRE=Blues
TTITLE0=En Bas la lune de la louisiane (Under the Louisiana Moon)
TTITLE1=Eleve comme un cajun (Raised like a cajun)
TTITLE2=Mom et pop Parler juste en francais (Mom and Pop spoke only in french)
TTITLE3=Avec son coeur (with her heart)
TTITLE4=Ouvrir la porte (open the door)
TTITLE5=Mom, la pluse belle rose (Mom, the prettiest rose)
TTITLE6=Valse de pauvre parents (Waltz of poor parents)
TTITLE7=Bal de Maison (House Dance)
TTITLE8=La Musique en francais (Music in french)
TTITLE9=Bayou vermillion
TTITLE10=Les Larmes tombes comme la pluit (Tears fall like rain)
EXTD=
EXTT0=
EXTT1=
EXTT2=
EXTT3=
EXTT4=
EXTT5=
EXTT6=
EXTT7=
EXTT8=
EXTT9=
EXTT10=
PLAYORDER=
